<?xml version="1.0" encoding="utf-8"?>
<!-- Generator: Adobe Illustrator 16.0.0, SVG Export Plug-In . SVG Version: 6.00 Build 0)  -->
<!DOCTYPE svg PUBLIC "-//W3C//DTD SVG 1.1//EN" "http://www.w3.org/Graphics/SVG/1.1/DTD/svg11.dtd">
<svg version="1.1" id="Layer_1" xmlns="http://www.w3.org/2000/svg" xmlns:xlink="http://www.w3.org/1999/xlink" x="0px" y="0px"
	 width="335.612px" height="140px" viewBox="0 0 335.612 140" enable-background="new 0 0 335.612 140" xml:space="preserve">
<g>
	<g id="layer1">
		<path id="path3793" fill="#601848" d="M48.371,15.617c-0.891-0.593-3.473-0.989-4.55-0.694C38.245,51.751,0,57.398,0,91.872
			C0,121.646,28.253,140,59.393,140c29.552,0,54.356-23.267,54.356-48.128c0-41.846-43.961-47.76-55.696-91.872
			c-2.064,0-6.233,5.276-5.823,6.931c14.807,59.021-8.929,51.329-8.929,88.277c0,12.749,7.119,32.324,11.676,36.118
			c-14.142-1.738-34.555-20.968-34.726-42.735C19.997,55.604,45.681,60.911,48.371,15.617 M69.578,43.354
			c35.421,26.648,33.78,69.028-0.786,87.926C87.42,109.948,92.145,84.485,69.578,43.354z"/>
	</g>
	<g>
		<path fill="#601848" d="M126.067,127.841V65.654h17.814v8.854c0.354-2.987,1.279-5.209,2.772-6.667
			c1.493-1.457,3.521-2.187,6.08-2.187h8.96c4.835,0,8.994,1.743,12.48,5.227c3.482,3.485,5.226,7.645,5.226,12.479v44.48h-17.706
			V83.36c0-2.416-0.872-4.496-2.613-6.239c-1.743-1.742-3.857-2.613-6.347-2.613c-2.419,0-4.499,0.871-6.24,2.613
			c-1.743,1.743-2.612,3.823-2.612,6.239v44.48H126.067z"/>
		<path fill="#601848" d="M190.013,56.694v-8.854h17.814v8.854H190.013z M190.013,127.841V65.654h17.814v62.187H190.013z"/>
		<path fill="#601848" d="M236.146,65.654h17.812c4.835,0,8.994,1.743,12.48,5.227c3.482,3.485,5.226,7.645,5.226,12.479v26.667
			c0,4.837-1.743,9.013-5.226,12.533c-3.486,3.52-7.646,5.28-12.48,5.28h-17.812c-4.837,0-9.015-1.741-12.533-5.227
			c-3.521-3.483-5.281-7.68-5.281-12.587V83.36c0-4.835,1.761-8.994,5.281-12.479C227.132,67.397,231.31,65.654,236.146,65.654z
			 M236.146,83.36v26.667c0,2.419,0.869,4.517,2.612,6.294c1.741,1.778,3.821,2.666,6.24,2.666c2.489,0,4.604-0.888,6.347-2.666
			c1.741-1.777,2.613-3.875,2.613-6.294V83.36c0-2.416-0.872-4.496-2.613-6.239c-1.743-1.742-3.857-2.613-6.347-2.613
			c-2.419,0-4.499,0.871-6.24,2.613C237.016,78.864,236.146,80.944,236.146,83.36z"/>
		<path fill="#601848" d="M282.277,127.841V65.654h17.814v8.854c0.354-2.987,1.279-5.209,2.772-6.667
			c1.493-1.457,3.521-2.187,6.08-2.187h8.96c4.835,0,8.995,1.743,12.48,5.227c3.483,3.485,5.227,7.645,5.227,12.479v44.48h-17.707
			V83.36c0-2.416-0.871-4.496-2.613-6.239c-1.742-1.742-3.857-2.613-6.347-2.613c-2.419,0-4.498,0.871-6.239,2.613
			c-1.743,1.743-2.613,3.823-2.613,6.239v44.48H282.277z"/>
	</g>
</g>
</svg>
